<svg width="3862" height="2634" viewBox="0 0 3862 2634" fill="none" xmlns="http://www.w3.org/2000/svg">
<path d="M2226.72 576.056H1493.07V172.422C1493.07 145.05 1515.9 122.806 1544 122.806H2175.73C2203.88 122.806 2226.67 145.05 2226.67 172.422L2226.72 576.056Z" fill="#4EB4A1"/>
<path d="M2138.97 551.445H1582.48C1548.05 551.445 1520.05 524.27 1520.05 490.683V206.601C1520.05 173.063 1547.95 145.839 1582.48 145.839H2139.02C2173.45 145.839 2201.45 173.014 2201.45 206.601V490.634C2201.4 524.22 2173.5 551.445 2138.97 551.445Z" fill="#202020"/>
<path opacity="0.5" d="M1498.64 576.056C1472.86 591.789 1390.03 642.539 1351.45 671.341C1343.7 677.161 1330.59 687.37 1333.07 695.656C1335.1 702.511 1346.89 704.977 1352.77 705.865H2339.63C2341.3 706.112 2343.58 706.26 2346.21 705.865C2352.79 704.829 2363.07 699.996 2363.27 691.76C2363.42 686.039 2358.56 680.268 2351.47 677.654L2218.82 575.957L1498.64 576.056Z" stroke="#4EB4A1" stroke-miterlimit="10"/>
<path d="M1579.39 576.056C1559.59 588.09 1495.9 627.151 1466.23 649.345C1460.25 653.833 1450.23 661.675 1452.05 668.037C1453.57 673.314 1462.68 675.238 1467.19 675.928H2225.95C2227.22 676.126 2228.99 676.224 2231.02 675.928C2236.08 675.139 2244.03 671.391 2244.18 665.127C2244.28 660.689 2240.64 656.299 2235.12 654.326L2133.15 576.154L1579.39 576.056Z" stroke="#4EB4A1" stroke-miterlimit="10"/>
<path d="M1609.46 576.056L1514.23 676.076" stroke="#4EB4A1" stroke-miterlimit="10"/>
<path d="M1662.47 576.056L1582.37 676.076" stroke="#4EB4A1" stroke-miterlimit="10"/>
<path d="M1716.6 576.056L1638.68 676.076" stroke="#4EB4A1" stroke-miterlimit="10"/>
<path d="M1771.74 576.056C1749.72 609.396 1727.74 642.736 1705.72 676.076" stroke="#4EB4A1" stroke-miterlimit="10"/>
<path d="M1816.15 576.056L1782.63 676.076" stroke="#4EB4A1" stroke-miterlimit="10"/>
<path d="M1848.05 576.056L1843.19 676.076" stroke="#4EB4A1" stroke-miterlimit="10"/>
<path d="M1881.11 576.056L1916.75 676.076" stroke="#4EB4A1" stroke-miterlimit="10"/>
<path d="M1927.58 576.056L1990.36 676.076" stroke="#4EB4A1" stroke-miterlimit="10"/>
<path d="M1984.95 576.056L2061.76 676.076" stroke="#4EB4A1" stroke-miterlimit="10"/>
<path d="M2033.66 576.056L2118.06 676.076" stroke="#4EB4A1" stroke-miterlimit="10"/>
<path d="M2086.72 576.056L2185.2 676.076" stroke="#4EB4A1" stroke-miterlimit="10"/>
<path d="M2185.19 616.054H1515.33" stroke="#4EB4A1" stroke-miterlimit="10"/>
<path d="M1286.85 576.056H2476.38" stroke="#4EB4A1" stroke-miterlimit="10"/>
<path d="M1260.66 1089.03H2747" stroke="#4EB4A1" stroke-miterlimit="10"/>
<path d="M513.138 1087.85C504.733 1088.88 489.544 1091.89 474.355 1102.4C448.532 1120.25 441.646 1146.73 440.077 1153.94L1 2632.59" stroke="#4EB4A1" stroke-miterlimit="10"/>
<path d="M3313.97 1089.82C3323.99 1088.19 3338.52 1087.4 3353.21 1093.32C3382.98 1105.45 3395.33 1137.91 3400.24 1151.32C3419.53 1204.19 3607.33 1806.98 3861.14 2632.79" stroke="#4EB4A1" stroke-miterlimit="10"/>
<path d="M628.232 1619.42L497.299 2632.84" stroke="#4EB4A1" stroke-width="3" stroke-miterlimit="10"/>
<path d="M1167.85 1619.42L1300.1 2632.79" stroke="#4EB4A1" stroke-width="3" stroke-miterlimit="10"/>
<path d="M542.148 2285.33H1254.74" stroke="#4EB4A1" stroke-width="3" stroke-miterlimit="10"/>
<path d="M2747.01 1619.42L2620.23 2632.54" stroke="#4EB4A1" stroke-width="3" stroke-miterlimit="10"/>
<path d="M3291.7 1619.42L3416 2632.79" stroke="#4EB4A1" stroke-width="3" stroke-miterlimit="10"/>
<path d="M2660.07 2285.33H3374.94" stroke="#4EB4A1" stroke-width="3" stroke-miterlimit="10"/>
<path d="M1281.47 843.665H1541.77L1434.13 1055.05H1260.71" stroke="#4EB4A1" stroke-miterlimit="10"/>
<path d="M1716.59 813.58L1711.99 1055.05H2000.54V813.58H1716.59Z" stroke="#4EB4A1" stroke-miterlimit="10"/>
<path d="M1255.85 892.639C1270.23 882.973 1291.5 872.27 1314.64 876.167C1337.02 879.964 1339.29 893.823 1360.31 896.338C1390.58 899.939 1403.65 873.257 1434.13 876.364C1450.03 877.991 1462.23 886.869 1470.28 894.316" stroke="#4EB4A1" stroke-miterlimit="10"/>
<path d="M1255.85 930.862C1270.23 921.196 1291.5 910.493 1314.64 914.389C1337.02 918.187 1339.29 932.046 1360.31 934.561C1390.58 938.161 1403.65 911.48 1434.13 914.587C1450.03 916.214 1462.23 925.092 1470.28 932.539" stroke="#4EB4A1" stroke-miterlimit="10"/>
<path d="M1150.33 215.774C1153.83 220.805 1155.09 237.771 1157.32 271.604C1161.17 329.062 1158.99 336.706 1155.85 343.118C1140.97 373.104 1101.27 381.439 1097.12 382.278C1013.07 398.849 905.073 285.66 923.503 238.017C931.857 216.366 965.375 210.595 1017.93 201.521C1054.03 195.257 1126.89 182.631 1150.33 215.774Z" fill="#FCB9B9"/>
<path d="M1149.48 229.584C1141.27 241.717 1111.55 241.519 1097.27 241.47C1096.46 241.47 1095.91 241.47 1095.71 241.47C1087.96 241.322 1060.77 240.434 1058.49 232.296C1057.28 227.808 1064.77 222.58 1068.97 219.72C1092.36 203.839 1134.69 195.208 1147.81 209.609C1152.92 215.182 1153.27 223.961 1149.48 229.584Z" fill="#F17171"/>
<path d="M867.921 414.631L827.416 515.392L1040.32 477.465L1062.7 414.681H867.921V414.631Z" fill="#FCB9B9"/>
<path d="M867.91 414.631H1062.69L1057.68 428.688L848.113 463.754L867.91 414.631Z" fill="#F17171"/>
<path d="M1070.34 238.017C1032.72 243.295 1014.59 241.174 1006.64 254.392C1002.44 261.346 1002.24 270.667 1005.53 277.671C1012.51 292.516 1034.13 294.538 1044.82 297.892C1065.93 304.501 1089.98 330.394 1103.3 414.681C1006.84 414.681 910.34 414.681 813.937 414.681C771.306 325.363 782.191 222.876 842.392 156.295C956.162 30.4303 1159.5 127.985 1177.93 139.23C1183.55 142.633 1197.67 151.313 1198.89 164.482C1199.65 173.113 1194.48 180.609 1190.64 186.232C1181.78 199.153 1170.33 205.713 1166.84 207.735C1126.84 230.126 1070.34 238.017 1070.34 238.017Z" fill="#4EB4A1"/>
<path d="M888.82 145.789C930.135 145.789 963.653 113.14 963.653 72.8947C963.653 32.6497 930.135 0 888.82 0C847.504 0 813.986 32.6497 813.986 72.8947C813.986 113.14 847.454 145.789 888.82 145.789Z" fill="#4EB4A1"/>
<path d="M1029.83 254.096C1037.88 253.159 1045.57 256.611 1049.37 262.875C1053.27 269.385 1051.24 276.24 1050.84 277.473" stroke="#F17171" stroke-miterlimit="10"/>
<path d="M1040.77 626.066C1040.77 716.272 1040.77 806.477 1040.77 896.683L1065.83 949.308L1255.85 1153.34L1458.63 1154.77C1482.27 1157.59 1574.07 1171.25 1622.07 1240.89C1649.15 1280.24 1658.88 1332.57 1662.47 1351.86C1667.89 1381 1668.39 1403.74 1668.55 1414.64C1670.27 1523.54 1660.95 1767.47 1660.34 1783.31C1635.28 1776.06 1599.79 1767.23 1556.35 1761.06C1493.77 1752.18 1450.02 1753.81 1408.55 1755.59C1308.76 1759.88 1301.52 1776.01 1300.4 1781.04C1300.2 1781.97 1300.15 1782.76 1300.1 1783.31C1300.1 1737.78 1300.1 1692.26 1300.1 1646.74L1332.76 1550.42L1266.73 1555.5H668.471C625.789 1541.89 555.512 1511.95 512.526 1445.32C461.895 1366.8 476.122 1279.11 490.046 1202.96C514.248 1070.68 553.234 888.842 617.536 667.149C625.536 646.977 645.383 605.105 689.99 569.249C730.698 536.501 772.266 524.812 793.785 520.225C897.478 501.78 1001.17 483.334 1104.86 464.839C1137.12 461.88 1144.76 464.741 1145.72 467.946C1147.19 472.878 1133.17 479.043 1113.88 496.207C1113.88 496.207 1101.52 507.156 1085.37 526.883C1058.44 559.928 1045.58 606.288 1040.77 626.066Z" fill="#4EB4A1"/>
<path d="M480.271 1298.99H497.284" stroke="white" stroke-miterlimit="10"/>
<path d="M513.133 1298.99H530.449" stroke="white" stroke-miterlimit="10"/>
<path d="M545.033 1298.99H563.868" stroke="white" stroke-miterlimit="10"/>
<path d="M577.895 1298.99H591.413V1307.37" stroke="white" stroke-miterlimit="10"/>
<path d="M591.361 1320.98V1336.76" stroke="white" stroke-miterlimit="10"/>
<path d="M591.361 1349.93V1366.7" stroke="white" stroke-miterlimit="10"/>
<path d="M591.361 1384.06V1401.92" stroke="white" stroke-miterlimit="10"/>
<path d="M588.681 1414.99L584.682 1431.8" stroke="white" stroke-miterlimit="10"/>
<path d="M577.902 1444.43C577.902 1444.43 566.054 1457.06 563.877 1455.97" stroke="white" stroke-miterlimit="10"/>
<path d="M554.453 1462.83L535.719 1475.35" stroke="white" stroke-miterlimit="10"/>
<path d="M768.326 1298.99H759.162V1312.1" stroke="white" stroke-miterlimit="10"/>
<path d="M759.162 1325.77V1342.04" stroke="white" stroke-miterlimit="10"/>
<path d="M759.162 1353.58V1377.21" stroke="white" stroke-miterlimit="10"/>
<path d="M759.162 1388.25V1407.64" stroke="white" stroke-miterlimit="10"/>
<path d="M761.283 1423.42L768.321 1437.62" stroke="white" stroke-miterlimit="10"/>
<path d="M775.869 1450.25L789.894 1462.83" stroke="white" stroke-miterlimit="10"/>
<path d="M800.111 1469.09L819.503 1480.68" stroke="white" stroke-miterlimit="10"/>
<path d="M829.785 1483.84L847.557 1493.3" stroke="white" stroke-miterlimit="10"/>
<path d="M859.459 1493.3L878.294 1483.84" stroke="white" stroke-miterlimit="10"/>
<path d="M890.184 1475.35L913.424 1456.51" stroke="white" stroke-miterlimit="10"/>
<path d="M920.98 1450.25L933.385 1431.85" stroke="white" stroke-miterlimit="10"/>
<path d="M937.688 1420.26V1401.92" stroke="white" stroke-miterlimit="10"/>
<path d="M937.688 1388.25V1369.56" stroke="white" stroke-miterlimit="10"/>
<path d="M937.688 1358.32V1333.9" stroke="white" stroke-miterlimit="10"/>
<path d="M937.688 1325.77V1303.13" stroke="white" stroke-miterlimit="10"/>
<path d="M933.326 1298.99H909.58" stroke="white" stroke-miterlimit="10"/>
<path d="M901.778 1298.99H878.285" stroke="white" stroke-miterlimit="10"/>
<path d="M866.49 1298.99H843.25" stroke="white" stroke-miterlimit="10"/>
<path d="M835.152 1298.99H809.836" stroke="white" stroke-miterlimit="10"/>
<path d="M800.121 1298.99H782.906" stroke="white" stroke-miterlimit="10"/>
<path d="M971.91 1998.39C976.264 1994.74 1026.03 1953.76 1091.3 1969.93C1137.78 1981.42 1174.23 2017.57 1186.33 2063.59L1187.14 1766.59L933.43 1805.11L964.669 2006.72L971.91 1998.39Z" fill="#FCB9B9"/>
<path d="M947.503 1896.4C979.705 1898.71 1028.11 1898.42 1083.96 1883.33C1128 1871.44 1162.64 1854.08 1186.89 1839.43V1725.31L933.377 1805.06L947.503 1896.4Z" fill="#4EB4A1"/>
<path d="M847.615 1619.42H1213.07C1213.07 1675.39 1213.07 1731.32 1213.07 1787.3C1182.54 1803.08 1120.06 1830.36 1036.47 1831.15C945.689 1832.03 878.247 1801.21 847.717 1784.93L847.615 1619.42Z" fill="#2B8372"/>
<path d="M965.835 2325.72C977.885 2344.42 1009.43 2393.34 1065.68 2398.03C1097.88 2400.69 1131.3 2388.31 1153.37 2366.02C1176.87 2342.3 1181.58 2312.9 1184.46 2289.92C1190.18 2244.4 1195.7 2168.54 1186.23 2063.64C1170.23 2010.23 1124.56 1971.81 1071.81 1966.73C1010.19 1960.76 967.86 2003.27 964.569 2006.72C943.203 2028.97 936.62 2052.84 931.152 2073.01C928.418 2083.07 919.608 2118.14 934.14 2208.29C943.962 2269.06 948.873 2299.44 965.835 2325.72Z" stroke="#4EB4A1" stroke-miterlimit="10"/>
<path d="M1153.37 2366.02C1150.43 2362.76 1145.67 2357.14 1141.16 2349.4C1128.96 2328.34 1127.95 2308.02 1127.54 2300.62C1125.92 2273 1114.99 2202.43 1098.53 2102.75C1095.75 2085.78 1065.57 2039.37 1020.61 2035.13C977.928 2031.14 932.865 2068.03 926.536 2102.55C925.169 2110 925.625 2119.81 926.435 2139.44C927.347 2160.9 929.574 2177.67 930.992 2187.04C941.625 2259.19 946.941 2295.2 965.776 2325.68C976.206 2342.59 1004.36 2388.07 1054.99 2396.55C1091.44 2402.66 1123.8 2386.88 1125.37 2386.09C1138.33 2379.63 1147.54 2371.74 1153.37 2366.02Z" fill="#4EB4A1"/>
<path d="M1384.51 1830.75C1416.61 1836.72 1458.78 1841.35 1507.95 1838.54C1547.29 1836.27 1581.21 1829.81 1608.35 1822.71C1608.35 1907.84 1608.35 1993.01 1608.35 2078.14C1605.66 2065.71 1600.15 2047.91 1588.15 2029.16C1581.36 2018.66 1570.78 2002.53 1550.27 1989.26C1528.81 1975.41 1508.35 1972.4 1498.48 1971.07C1466.12 1966.63 1439.9 1974.67 1426.33 1980.04L1384.51 1830.75Z" fill="#FCB9B9"/>
<path d="M1480.24 1839.28C1579.74 1839.28 1660.39 1814.28 1660.39 1783.45C1660.39 1752.58 1579.74 1727.57 1480.24 1727.57C1380.75 1727.57 1300.1 1752.58 1300.1 1783.45C1300.1 1814.28 1380.75 1839.28 1480.24 1839.28Z" fill="#C65151" stroke="white" stroke-miterlimit="10"/>
<path d="M1384.5 1833.32C1416.3 1841.55 1464.35 1849.84 1522.12 1843.97C1556.4 1840.52 1585.56 1832.87 1608.35 1825.03C1608.35 1798.25 1608.35 1771.42 1608.35 1744.59C1577.36 1736.25 1535.64 1728.22 1485.97 1727.62C1433.06 1726.98 1388.71 1734.92 1356.45 1743.26L1384.5 1833.32Z" fill="#FCB9B9"/>
<path d="M1343.76 2063.64C1356.21 2036.37 1374.29 2019.6 1385.73 2009.19C1396.77 1999.13 1409.02 1987.98 1426.29 1980.14C1464.67 1962.73 1519.3 1965.44 1559.45 1996.02C1592.36 2021.13 1602.59 2055.16 1605.72 2067.78C1615.65 2099.15 1663.75 2253.72 1659.45 2332.93C1658.94 2341.95 1657.42 2356.35 1647.34 2368.78C1623.95 2397.63 1571.95 2396.55 1539.2 2387.82C1509.78 2380.03 1491.5 2365.03 1469.22 2346.49C1426.24 2310.58 1404.92 2274.09 1362.44 2201.19C1339.86 2162.48 1329.58 2139.89 1331.2 2111.28C1332.47 2088.74 1340.77 2070.2 1343.76 2063.64Z" stroke="#4EB4A1" stroke-miterlimit="10"/>
<path d="M1463.14 2082.68C1449.78 2059.55 1424.81 2045.29 1398.33 2045.93C1372.77 2046.53 1349.58 2060.88 1338.44 2080.7C1333.68 2089.14 1330.39 2099.84 1330.74 2116.76C1331.35 2147.48 1343.3 2170.07 1371.6 2216.58C1404.16 2269.99 1420.76 2297.12 1439.19 2317.69C1439.19 2317.69 1467.6 2349.4 1504.1 2372.09C1516.1 2379.53 1526.48 2384.17 1537.27 2387.42C1539.24 2388.02 1548.46 2390.68 1561.62 2392.11C1573.32 2393.39 1589.92 2395.22 1609.57 2390.28C1618.13 2388.16 1624.86 2385.3 1629.32 2383.18L1463.14 2082.68Z" fill="#4EB4A1"/>
<path d="M1614.58 2089.68C1608.66 2087.61 1612.61 2064.92 1617.82 2034.74C1626.63 1983.89 1635.69 1978.96 1639.74 1977.53C1648.71 1974.32 1661.01 1977.82 1666.28 1985.27C1674.17 1996.37 1664.91 2013.88 1649.57 2042.04C1639.95 2059.6 1622.07 2092.29 1614.58 2089.68Z" stroke="#4EB4A1" stroke-miterlimit="10"/>
<path d="M1614.68 2090.37C1615.69 2092.79 1621.61 2092.69 1634.07 2091.65C1683.89 2087.51 1687.89 2081.44 1689.11 2078.93C1692.45 2072.12 1689.16 2064.08 1688.65 2062.85C1688.4 2062.16 1684.25 2052.54 1675.54 2049.73C1672.6 2048.79 1665.66 2047.46 1628.91 2075.72C1617.77 2084.35 1613.72 2088 1614.68 2090.37Z" stroke="#4EB4A1" stroke-miterlimit="10"/>
<path d="M816.318 516.329C890.999 503.358 965.63 490.387 1040.31 477.416C1024.46 488.512 998.895 509.473 978.237 543.455C960.668 572.307 953.58 599.384 950.39 616.991L948.77 853.381H639.006C658.6 776.59 678.245 699.749 697.84 622.958C706.295 606.929 721.08 583.503 745.737 560.914C772.066 536.747 798.799 523.48 816.318 516.329Z" fill="white"/>
<path d="M1293.06 816.292C1290.83 740.685 1288.61 665.078 1286.38 589.47C1283.04 574.872 1271.49 533.739 1232.2 502.026C1222.94 494.48 1185.37 464.198 1145.32 468.193C1091.85 473.519 1040.92 539.263 1036.31 630.8C1037.47 720.71 1038.59 810.621 1039.75 900.531C1057.93 880.704 1111.65 827.439 1197.98 813.876C1236.71 807.76 1269.87 811.508 1293.06 816.292Z" fill="white"/>
<path d="M1182.23 895.648C1250.49 870.988 1299.8 835.182 1292.36 815.651C1284.91 796.121 1223.55 800.263 1155.3 824.923C1087.05 849.583 1037.73 885.389 1045.17 904.871C1052.62 924.45 1113.98 920.308 1182.23 895.648Z" fill="#C65151"/>
<path d="M1043.71 900.53C1046.59 902.75 1051 905.758 1056.82 908.126C1064.82 911.43 1072.26 912.367 1085.48 912.564C1087.05 912.614 1107.5 912.86 1119.5 911.381C1142.24 908.52 1194.13 891.751 1258.94 860.335C1259.5 1056.97 1260.06 1253.61 1260.61 1450.2C1263.45 1457.99 1268.92 1468.65 1279.7 1475.55C1302.03 1489.75 1325.83 1474.17 1346.23 1486.06C1355.04 1491.23 1365.17 1502.58 1368.71 1530.59C1368.71 1561.91 1368.71 1593.23 1368.71 1624.55C1366.74 1626.91 1344.41 1652.9 1308.01 1650.44C1273.37 1648.12 1255.15 1621.98 1253.07 1618.97C1264.36 1618.43 1275.7 1617.94 1286.99 1617.39C1288.36 1616.31 1302.79 1604.32 1301.32 1584.79C1299.8 1564.87 1282.94 1555.05 1281.52 1554.26C1224.61 1554.66 1167.76 1555 1110.85 1555.4C1101.93 1552.29 1080.92 1543.66 1064.26 1522.35C1043.56 1496.02 1043.2 1467.76 1043.46 1459.18L1043.71 900.53Z" fill="#FCB9B9"/>
<path d="M1260.66 1450.25C1275.95 1450.25 1291.24 1450.25 1306.53 1450.25C1309.12 1449.85 1315.29 1449.26 1320.86 1452.67C1328.91 1457.7 1332.51 1469.09 1328.76 1480.63C1319.24 1481.02 1309.72 1481.42 1300.21 1481.81C1295.85 1481.57 1287.95 1480.48 1279.85 1475.55C1265.98 1467.26 1261.67 1453.85 1260.66 1450.25Z" fill="#F17171"/>
<path d="M1357.43 1352.84C1347.15 1361.47 1330.49 1377.75 1318.9 1403.05C1311.2 1419.87 1308.31 1435.21 1307.15 1446.25" stroke="white" stroke-miterlimit="10"/>
<path d="M1340.06 680.959C1339.7 680.762 1316.56 709.268 1325.53 723.275C1329.63 729.736 1339.15 731.018 1342.84 731.068C1518.69 733.336 1696.61 734.421 1876.6 734.273C2037.56 734.175 2196.79 733.04 2354.36 731.068C2365.4 727.369 2372.99 718.392 2373.65 708.331C2374.46 696.396 2364.28 685.792 2362.01 686.631C2360.39 687.222 2363.42 693.289 2360.59 698.369C2357.04 704.78 2346.26 706.112 2335.68 705.865C1787.59 705.027 1394.23 704.78 1363.04 706.112C1358.49 706.309 1339.25 707.493 1334.94 698.812C1331.3 691.562 1340.26 681.057 1340.06 680.959Z" fill="#4EB4A1"/>
<path d="M1279 1619.07H518.359C506.714 1619.07 497.246 1609.9 497.246 1598.55V1576.11C497.246 1564.77 506.664 1555.6 518.359 1555.6H1279.05C1290.69 1555.6 1300.16 1564.77 1300.16 1576.11V1598.55C1300.11 1609.9 1290.69 1619.07 1279 1619.07Z" fill="white" stroke="white" stroke-width="3" stroke-miterlimit="10"/>
<path d="M1043.26 901.961C1037.69 886.08 1092.42 851.951 1132.98 833.752C1180.67 812.298 1225.48 805.442 1258.95 803.42C1258.95 822.359 1258.95 841.347 1258.95 860.335C1215.2 884.206 1177.68 897.177 1151.81 904.476C1138.85 908.077 1114.19 914.488 1082.6 912.417C1063.66 911.134 1046.09 910 1043.26 901.961Z" fill="#F17171"/>
<path d="M3353.87 1619.42H2681.13C2669.49 1619.42 2660.02 1610.24 2660.02 1598.9V1585.63C2660.02 1574.29 2669.44 1565.11 2681.13 1565.11H3353.82C3365.47 1565.11 3374.89 1574.29 3374.89 1585.63V1598.9C3374.94 1610.24 3365.52 1619.42 3353.87 1619.42Z" fill="white" stroke="white" stroke-width="3" stroke-miterlimit="10"/>
<path d="M2370.36 816.785H1931.13C1931.13 816.785 1920.34 812.347 1896.7 838.979C1873 865.612 1871.18 873.602 1871.18 873.602H1841.11C1841.11 873.602 1823.79 891.357 1831.99 921.541H1821.06C1821.06 921.541 1796.45 934.857 1807.39 972.143H1797.36C1797.36 972.143 1770.02 1002.33 1797.36 1017.42H2384.03L2370.36 816.785Z" fill="#FCB9B9"/>
<path d="M2341.2 816.785C2335.02 823.394 2299.53 862.702 2303.83 921.491C2307.98 977.765 2345.6 1011.06 2353.05 1017.32H2428.64L2391.27 820.336L2370.31 816.785H2341.2Z" fill="#F17171"/>
<path d="M2545.24 419.268C2482.41 564.218 2419.52 709.12 2356.69 854.071C2329.4 915.03 2347.98 986.593 2401.35 1027.08C2453.35 1066.59 2526.86 1067.77 2580.79 1029.75L2783.92 822.112C2783.92 822.112 2694.66 815.01 2624.48 731.61L2672.78 389.972C2672.78 389.972 2666.4 358.012 2641.8 354.461C2617.19 350.91 2592.58 317.175 2592.58 317.175L2606.25 230.225C2606.25 230.225 2604.43 227.561 2576.18 230.225C2547.93 232.888 2486 260.408 2486 260.408C2486 260.408 2464.13 326.941 2471.42 371.329L2545.24 419.268Z" fill="#FCB9B9"/>
<path d="M2622.76 151.264C2603.06 144.014 2591.52 136.32 2590.15 126.16C2589.44 120.932 2591.31 113.781 2596.27 109.983C2604.58 103.621 2617.34 109.687 2618.96 106.235C2620.48 102.98 2608.63 98.3932 2603.82 87.7894C2598.1 75.2129 2604.02 58.2468 2613.69 47.8897C2630.3 30.1346 2655.62 34.5733 2659.92 35.3131C2666.45 36.4475 2680.88 39.0121 2685.89 49.1227C2690.15 57.7537 2683.72 63.9679 2688.73 74.4237C2692.07 81.4272 2699.72 88.5292 2705.39 87.0003C2710.65 85.57 2713.39 76.8897 2712.98 70.0343C2711.97 53.8574 2693.23 48.5308 2694.8 41.9713C2697.69 29.9866 2766.35 21.0104 2787.31 50.1091C2798.29 65.3489 2791.66 84.8302 2807 93.6585C2810.14 95.434 2817.23 96.371 2831.26 98.0972C2855.46 101.106 2857.38 99.4289 2864.62 101.796C2879 106.482 2891 119.403 2895.71 132.818C2902.44 151.954 2893.43 169.414 2882.9 189.733C2872.42 209.905 2858.45 242.456 2841.13 241.371C2833.33 240.878 2832.07 234.121 2822.04 225.688C2791.11 199.696 2753.84 222.58 2726.15 198.858C2710.65 185.591 2720.12 176.516 2704.68 165.32C2683.31 149.834 2663.31 166.208 2622.76 151.264Z" fill="#4EB4A1"/>
<path d="M2838.85 264.995C2860.32 313.477 2881.79 361.958 2903.25 410.489C2866.49 405.557 2815 403.979 2757.79 420.106C2742.55 424.397 2728.62 429.477 2716.02 434.853C2707.41 408.516 2698.85 382.229 2690.25 355.892C2726.7 323.489 2763.16 291.036 2799.61 258.633C2812.67 260.754 2825.79 262.875 2838.85 264.995Z" fill="#FCB9B9"/>
<path d="M2818.24 282.159C2812.17 309.285 2797.43 355.596 2758.45 398.06C2744.07 413.695 2729.28 425.679 2716.02 434.853L2690.25 358.506L2796.77 258.633L2818.24 282.159Z" fill="#F17171"/>
<path d="M2622.75 151.264L2592.62 317.225C2605.48 337.397 2620.77 346.225 2628.52 349.924C2668.01 368.863 2724.31 353.771 2747.1 322.601C2758.24 307.361 2758.44 292.319 2773.73 286.45C2787.91 281.024 2796.36 290.74 2812.31 284.921C2824.67 280.433 2837.93 267.955 2838.84 251.679C2839.75 235.256 2827.85 218.98 2809.27 212.519C2801.02 213.012 2789.22 213.21 2775.15 211.779C2756.62 209.905 2747.1 208.968 2739.5 203.642C2719.05 189.339 2724.97 151.954 2725.83 146.776L2622.75 151.264Z" fill="#FCB9B9"/>
<path d="M2810.75 228.104C2808.93 228.4 2793.94 231.063 2788.02 243.591C2786.04 247.783 2785.69 251.778 2785.74 254.688" stroke="#F17171" stroke-miterlimit="10"/>
<path d="M2633.39 186.725C2633.39 186.725 2660.68 184.506 2671.31 211.089" stroke="#F17171" stroke-miterlimit="10"/>
<path d="M2651.18 230.651C2653.22 222.473 2652.12 215.191 2648.73 214.388C2645.33 213.584 2640.92 219.563 2638.88 227.741C2636.84 235.92 2637.94 243.201 2641.34 244.005C2644.74 244.809 2649.14 238.83 2651.18 230.651Z" fill="#F17171"/>
<path d="M2810.34 96.371C2807.91 94.6941 2812.87 84.3863 2815.66 78.6652C2819.5 70.6753 2822.54 64.3624 2828.57 63.1787C2831.96 62.4882 2836.97 63.2774 2838.44 66.1379C2842.74 74.5223 2814.69 99.3795 2810.34 96.371Z" fill="#4EB4A1"/>
<path d="M3349.71 1307.62C3349.71 1307.62 3340.35 1370.15 3326.83 1381.89L2894.74 1202.66L3349.71 1307.62Z" fill="#E6E6E6"/>
<path d="M2783.91 822.112C2783.91 822.112 2681.78 810.423 2624.47 731.61C2636.32 647.816 2648.16 564.021 2660.01 480.227C2670.09 468.538 2685.99 452.707 2708.82 438.798C2721.78 430.907 2753.22 413.695 2814.39 407.382C2868.56 401.809 2930.74 395.397 2996.91 428.491C3080.46 470.215 3113.42 546.266 3122.43 569.447L3331.59 1175.14C3331.59 1175.14 3357.26 1235.36 3349.66 1307.57L2883.75 1200.15C2883.75 1200.15 2782.03 1153.84 2754.44 1107.53L2663.1 945.51L2783.91 822.112Z" fill="white" stroke="#4EB4A1" stroke-width="2" stroke-miterlimit="10"/>
<path d="M3326.84 1381.89L2830.09 1176.97H2363.16C2363.16 1176.97 2056.89 1252.43 2213.19 1522.4L2535.11 2083.81L2793.08 1929.44L2628.93 1555.65L3115.04 1556.34C3115.04 1556.39 3267.85 1539.76 3326.84 1381.89Z" fill="#4EB4A1"/>
<path d="M2684.98 2041.36C2756.6 1999.43 2805.57 1950.72 2794.36 1932.56C2783.15 1914.4 2716.01 1933.66 2644.4 1975.58C2572.79 2017.51 2523.82 2066.22 2535.02 2084.38C2546.23 2102.54 2613.37 2083.28 2684.98 2041.36Z" fill="#C65151" stroke="white" stroke-width="5" stroke-miterlimit="10"/>
<path d="M2778.69 1969.73C2759.2 1988.82 2733.68 2010.57 2701.48 2031.34C2675.51 2048.1 2650.75 2060.63 2629.13 2070C2614.95 2053.28 2600.77 2036.56 2586.55 2019.84C2603.76 2004.06 2626.7 1985.91 2655.81 1969.09C2693.02 1947.59 2727.86 1935.46 2754.54 1928.36C2762.59 1942.16 2770.64 1955.97 2778.69 1969.73Z" fill="#FCB9B9"/>
<path d="M2778.7 1969.29C2778.7 1969.29 2702.6 2041.74 2629.13 2068.67L2657.94 2110.79C2657.94 2110.79 2762.3 2083.86 2800.72 2008.65L2778.7 1969.29Z" fill="#FCB9B9"/>
<path d="M2820.63 2028.57C2834.6 2023.1 2850.1 2038.54 2895.82 2076.27C2940.27 2112.96 2947.36 2116.21 2956.57 2132.54C2961.99 2142.06 2975.41 2165.73 2971.41 2192.86C2967.92 2216.53 2952.57 2233.1 2903.61 2270.88C2855.41 2308.07 2815.46 2334.41 2783.87 2354.73C2783.87 2354.73 2747.67 2378 2670.15 2420.96C2626.81 2444.98 2598.56 2459.28 2585.9 2449.07C2578.76 2443.3 2579.42 2432.01 2579.88 2425.06C2584.23 2362.42 2599.98 2311.47 2610.56 2263.88C2617.44 2232.91 2628.48 2202.82 2634.1 2171.6C2635.72 2162.53 2637.49 2151.28 2646.25 2140.33C2651.06 2134.32 2661.14 2124.4 2699.06 2113.85C2740.07 2102.45 2738.96 2111.09 2754.25 2102.45C2774.5 2091.01 2790.71 2067.78 2807.97 2042.93C2814.6 2033.31 2815.97 2030.4 2820.63 2028.57Z" fill="#202020" stroke="#4EB4A1" stroke-miterlimit="10"/>
<path d="M2800.73 2011.85L2820.63 2028.57C2820.63 2028.57 2782.2 2123.51 2646.25 2140.23L2657.9 2110.79C2657.95 2110.79 2756.78 2091.41 2800.73 2011.85Z" fill="#202020" stroke="#4EB4A1" stroke-miterlimit="10"/>
<path d="M2968.36 2158.63C2959.75 2154.88 2946.84 2150.39 2930.74 2148.91C2893.88 2145.61 2864.46 2160.55 2842.89 2172.93C2767.6 2216.14 2711.45 2272.16 2708.72 2274.93C2672.97 2311.03 2627.05 2361.88 2579.76 2428.51" stroke="#4EB4A1" stroke-miterlimit="10"/>
<path d="M2972.01 2178.16C2966.24 2166.52 2948.57 2164.3 2937.93 2162.97C2920.31 2160.8 2906.04 2164.2 2897.63 2167.06C2820.37 2193.3 2761.64 2250.32 2761.64 2250.32C2736.67 2273.15 2701.94 2306.79 2663.51 2350.53C2630.8 2387.77 2585.18 2439.7 2594.35 2450.21C2600.22 2456.92 2626.65 2443.2 2679.56 2415.68C2704.62 2402.66 2765.48 2369.87 2846.49 2312.85C2847.35 2312.16 2921.58 2255.49 2922.49 2254.8C2922.59 2254.7 2949.17 2234.38 2949.33 2234.34C2952.77 2230.59 2957.68 2224.72 2962.29 2216.68C2969.12 2204.64 2977.68 2189.6 2972.01 2178.16Z" fill="#4EB4A1"/>
<path d="M2755.99 1090H2552.54C2552.54 1090 2435.81 1124.75 2429 1177H2838C2838.05 1177 2751.17 1110.13 2755.99 1090Z" fill="#2B8372"/>
<path d="M2870 1619H2660L2793.82 1928L2870 1619Z" fill="#2B8372"/>
<path d="M2598.75 880.457L2635 657.433L2660.01 480.227" stroke="#F17171" stroke-miterlimit="10"/>
<path d="M2585.69 417.048H2541.84" stroke="#F17171" stroke-miterlimit="10"/>
<path d="M2564.07 233.924V310.37C2564.07 310.37 2554.4 322.7 2538.25 310.37C2522.1 298.04 2527.47 279.249 2527.47 279.249" stroke="#F17171" stroke-miterlimit="10"/>
<path d="M2599.31 228.104L2598.2 281.764L2592.63 317.274C2592.63 317.274 2565.54 321.22 2564.07 308.594" stroke="#F17171" stroke-miterlimit="10"/>
<path d="M2528.88 298.336C2528.88 298.336 2526.2 328.224 2545.33 331.923C2564.52 335.622 2624.52 349.184 2624.52 349.184" stroke="#F17171" stroke-miterlimit="10"/>
<path d="M1806.21 967.556C1838.26 969.677 1870.31 971.797 1902.36 973.918C1914.05 989.651 1879.57 1014.61 1879.57 1014.61" stroke="#F17171" stroke-miterlimit="10"/>
<path d="M1806.21 967.556L1896.64 973.82C1896.64 973.82 1936.23 946.792 1921.95 923.069L1831.98 921.541" stroke="#F17171" stroke-miterlimit="10"/>
<path d="M1871.13 873.602L1848.19 904.822C1848.19 904.822 1855.28 936.288 1904.75 910.691L1928.9 888.201L1955.78 888.497C1955.78 888.497 2008.64 942.749 2022.26 938.458L2058.97 938.704" stroke="#F17171" stroke-miterlimit="10"/>
<path d="M2793.14 1929.49L2597.09 1473.18" stroke="white" stroke-miterlimit="10"/>
<path d="M2637.18 1980.58L2325.69 1447.24C2325.69 1447.24 2308.53 1366.11 2381.54 1355.21C2454.55 1344.31 3002.43 1355.21 3002.43 1355.21C3002.43 1355.21 3082.28 1341.3 3095.19 1286.36" stroke="white" stroke-miterlimit="10"/>
<path d="M2783.92 822.112L2881.13 719.527" stroke="#4EB4A1" stroke-miterlimit="10"/>
<path d="M2629.38 693.93C2629.38 693.93 2680.32 775.406 2808.32 796.367" stroke="#4EB4A1" stroke-miterlimit="10"/>
<path d="M2778.44 473.717C2786.3 473.717 2792.67 467.512 2792.67 459.858C2792.67 452.204 2786.3 445.999 2778.44 445.999C2770.59 445.999 2764.22 452.204 2764.22 459.858C2764.22 467.512 2770.59 473.717 2778.44 473.717Z" fill="#4EB4A1"/>
<path d="M2871.1 528.215C2878.96 528.215 2885.33 522.01 2885.33 514.356C2885.33 506.702 2878.96 500.498 2871.1 500.498C2863.24 500.498 2856.87 506.702 2856.87 514.356C2856.87 522.01 2863.24 528.215 2871.1 528.215Z" fill="#4EB4A1"/>
<path d="M2963.04 473.717C2970.9 473.717 2977.27 467.512 2977.27 459.858C2977.27 452.204 2970.9 445.999 2963.04 445.999C2955.18 445.999 2948.81 452.204 2948.81 459.858C2948.81 467.512 2955.18 473.717 2963.04 473.717Z" fill="#4EB4A1"/>
<path d="M2694.04 555.884C2701.89 555.884 2708.26 549.679 2708.26 542.025C2708.26 534.371 2701.89 528.166 2694.04 528.166C2686.18 528.166 2679.81 534.371 2679.81 542.025C2679.81 549.679 2686.18 555.884 2694.04 555.884Z" fill="#4EB4A1"/>
<path d="M2676.01 653.685C2683.87 653.685 2690.24 647.48 2690.24 639.826C2690.24 632.172 2683.87 625.967 2676.01 625.967C2668.15 625.967 2661.78 632.172 2661.78 639.826C2661.78 647.48 2668.15 653.685 2676.01 653.685Z" fill="#4EB4A1"/>
<path d="M2758.8 747.245C2766.66 747.245 2773.03 741.04 2773.03 733.386C2773.03 725.732 2766.66 719.527 2758.8 719.527C2750.94 719.527 2744.57 725.732 2744.57 733.386C2744.57 741.04 2750.94 747.245 2758.8 747.245Z" fill="#4EB4A1"/>
<path d="M2792.68 615.857C2800.53 615.857 2806.9 609.652 2806.9 601.998C2806.9 594.344 2800.53 588.139 2792.68 588.139C2784.82 588.139 2778.45 594.344 2778.45 601.998C2778.45 609.652 2784.82 615.857 2792.68 615.857Z" fill="#4EB4A1"/>
<path d="M2881.13 673.857C2888.99 673.857 2895.35 667.652 2895.35 659.998C2895.35 652.344 2888.99 646.139 2881.13 646.139C2873.27 646.139 2866.9 652.344 2866.9 659.998C2866.9 667.652 2873.27 673.857 2881.13 673.857Z" fill="#4EB4A1"/>
<path d="M2977.22 596.227C2985.08 596.227 2991.45 590.022 2991.45 582.368C2991.45 574.714 2985.08 568.51 2977.22 568.51C2969.36 568.51 2962.99 574.714 2962.99 582.368C2962.99 590.022 2969.36 596.227 2977.22 596.227Z" fill="#4EB4A1"/>
<path d="M3084.82 653.685C3092.68 653.685 3099.05 647.48 3099.05 639.826C3099.05 632.172 3092.68 625.967 3084.82 625.967C3076.96 625.967 3070.59 632.172 3070.59 639.826C3070.59 647.48 3076.96 653.685 3084.82 653.685Z" fill="#4EB4A1"/>
<path d="M2963.04 737.134C2970.9 737.134 2977.27 730.929 2977.27 723.275C2977.27 715.621 2970.9 709.416 2963.04 709.416C2955.18 709.416 2948.81 715.621 2948.81 723.275C2948.81 730.929 2955.18 737.134 2963.04 737.134Z" fill="#4EB4A1"/>
<path d="M2852.72 822.161C2860.57 822.161 2866.94 815.956 2866.94 808.302C2866.94 800.648 2860.57 794.444 2852.72 794.444C2844.86 794.444 2838.49 800.648 2838.49 808.302C2838.49 815.956 2844.86 822.161 2852.72 822.161Z" fill="#4EB4A1"/>
<path d="M2773.03 930.912C2780.89 930.912 2787.26 924.707 2787.26 917.053C2787.26 909.399 2780.89 903.194 2773.03 903.194C2765.17 903.194 2758.8 909.399 2758.8 917.053C2758.8 924.707 2765.17 930.912 2773.03 930.912Z" fill="#4EB4A1"/>
<path d="M2941.63 866.105C2949.49 866.105 2955.86 859.9 2955.86 852.246C2955.86 844.592 2949.49 838.388 2941.63 838.388C2933.78 838.388 2927.41 844.592 2927.41 852.246C2927.41 859.9 2933.78 866.105 2941.63 866.105Z" fill="#4EB4A1"/>
<path d="M3048.88 808.302C3056.73 808.302 3063.1 802.097 3063.1 794.443C3063.1 786.789 3056.73 780.584 3048.88 780.584C3041.02 780.584 3034.65 786.789 3034.65 794.443C3034.65 802.097 3041.02 808.302 3048.88 808.302Z" fill="#4EB4A1"/>
<path d="M2758.8 1039.71C2766.66 1039.71 2773.03 1033.51 2773.03 1025.85C2773.03 1018.2 2766.66 1011.99 2758.8 1011.99C2750.94 1011.99 2744.57 1018.2 2744.57 1025.85C2744.57 1033.51 2750.94 1039.71 2758.8 1039.71Z" fill="#4EB4A1"/>
<path d="M2881.13 984.572C2888.99 984.572 2895.35 978.367 2895.35 970.713C2895.35 963.059 2888.99 956.854 2881.13 956.854C2873.27 956.854 2866.9 963.059 2866.9 970.713C2866.9 978.367 2873.27 984.572 2881.13 984.572Z" fill="#4EB4A1"/>
<path d="M3027.25 956.903C3035.11 956.903 3041.48 950.698 3041.48 943.044C3041.48 935.39 3035.11 929.186 3027.25 929.186C3019.4 929.186 3013.03 935.39 3013.03 943.044C3013.03 950.698 3019.4 956.903 3027.25 956.903Z" fill="#4EB4A1"/>
<path d="M3167.61 884.699C3175.46 884.699 3181.83 878.494 3181.83 870.84C3181.83 863.186 3175.46 856.981 3167.61 856.981C3159.75 856.981 3153.38 863.186 3153.38 870.84C3153.38 878.494 3159.75 884.699 3167.61 884.699Z" fill="#4EB4A1"/>
<path d="M2870.39 1133.91C2878.25 1133.91 2884.62 1127.71 2884.62 1120.05C2884.62 1112.4 2878.25 1106.19 2870.39 1106.19C2862.53 1106.19 2856.16 1112.4 2856.16 1120.05C2856.16 1127.71 2862.53 1133.91 2870.39 1133.91Z" fill="#4EB4A1"/>
<path d="M2980.46 1077.64C2988.32 1077.64 2994.69 1071.43 2994.69 1063.78C2994.69 1056.12 2988.32 1049.92 2980.46 1049.92C2972.6 1049.92 2966.23 1056.12 2966.23 1063.78C2966.23 1071.43 2972.6 1077.64 2980.46 1077.64Z" fill="#4EB4A1"/>
<path d="M3118.7 1025.9C3126.55 1025.9 3132.92 1019.7 3132.92 1012.04C3132.92 1004.39 3126.55 998.184 3118.7 998.184C3110.84 998.184 3104.47 1004.39 3104.47 1012.04C3104.47 1019.7 3110.84 1025.9 3118.7 1025.9Z" fill="#4EB4A1"/>
<path d="M3084.82 1177.02C3092.68 1177.02 3099.05 1170.81 3099.05 1163.16C3099.05 1155.5 3092.68 1149.3 3084.82 1149.3C3076.96 1149.3 3070.59 1155.5 3070.59 1163.16C3070.59 1170.81 3076.96 1177.02 3084.82 1177.02Z" fill="#4EB4A1"/>
<path d="M3235.95 1098.15C3243.81 1098.15 3250.18 1091.95 3250.18 1084.3C3250.18 1076.64 3243.81 1070.44 3235.95 1070.44C3228.09 1070.44 3221.72 1076.64 3221.72 1084.3C3221.72 1091.95 3228.09 1098.15 3235.95 1098.15Z" fill="#4EB4A1"/>
<path d="M3210.78 1225.75C3218.64 1225.75 3225.01 1219.54 3225.01 1211.89C3225.01 1204.23 3218.64 1198.03 3210.78 1198.03C3202.92 1198.03 3196.55 1204.23 3196.55 1211.89C3196.55 1219.54 3202.92 1225.75 3210.78 1225.75Z" fill="#4EB4A1"/>
<path d="M1834.14 338.147H1853.82V435.446H1834.14V338.147Z" fill="white"/>
<path d="M1756 307.226V317.869C1756 325.997 1763.93 332.61 1773.68 332.61C1783.42 332.61 1791.35 325.997 1791.35 317.869V310.982H1779.17V317.869C1779.17 320.393 1776.7 322.447 1773.68 322.447C1770.65 322.447 1768.19 320.393 1768.19 317.869V307.226C1768.19 304.702 1770.65 302.648 1773.68 302.648H1946.32C1949.35 302.648 1951.81 304.702 1951.81 307.226V317.869C1951.81 320.393 1949.35 322.447 1946.32 322.447C1943.3 322.447 1940.83 320.393 1940.83 317.869V310.982H1928.65V317.869C1928.65 325.997 1936.58 332.61 1946.32 332.61C1956.07 332.61 1964 325.997 1964 317.869V307.226C1964 299.105 1956.08 292.497 1946.35 292.486H1773.65C1763.92 292.497 1756 299.105 1756 307.226Z" fill="white"/>
<path d="M1802.31 313.18V327.984H1917.69V313.18V312.81H1802.31V313.18Z" fill="white"/>
<path d="M1964 272.163V262H1756V272.163H1774.48V282.323H1945.52V272.163H1964Z" fill="white"/>
<path d="M1897.88 338.147H1917.69V435.446H1897.88V338.147Z" fill="white"/>
<path d="M1866.01 338.147H1885.7V435.446H1866.01V338.147Z" fill="white"/>
<path d="M1802.31 338.147H1821.95V435.446H1802.31V338.147Z" fill="white"/>
</svg>
